# xmcd CD database file
#
# Track frame offsets:
#	150
#	20440
#	45245
#	65678
#
# Disc length: 1203 seconds
#
# Revision: 2
# Processed by: cddbd v1.5.2PL0 Copyright (c) Steve Scherf et al.
# Submitted via: CDex 1.70beta2
#
DISCID=2a04b104
DTITLE=くるり - 春風
DYEAR=2000
DGENRE=Rock
TTITLE0=春風
TTITLE1=ギター
TTITLE2=ミレニアム～remixed by LABCRY～
TTITLE3=春風　～よもぎmix～
EXTD=YEAR: 2000
EXTT0=
EXTT1=
EXTT2=
EXTT3=
PLAYORDER=
